<svg xmlns="http://www.w3.org/2000/svg" version="1.1" xmlns:xlink="http://www.w3.org/1999/xlink" xmlns:svgjs="http://svgjs.dev/svgjs" width="1500" height="1500" viewBox="0 0 1500 1500"><rect width="1500" height="1500" fill="#000000"></rect><g transform="matrix(0.6666666666666666,0,0,0.6666666666666666,249.39393939393938,614.3826358239113)"><svg viewBox="0 0 396 107" data-background-color="#ffffff" preserveAspectRatio="xMidYMid meet" height="405" width="1500" xmlns="http://www.w3.org/2000/svg" xmlns:xlink="http://www.w3.org/1999/xlink"><g id="tight-bounds" transform="matrix(1,0,0,1,0.2400000000000091,0.24465913644996817)"><svg viewBox="0 0 395.52 106.51068172710005" height="106.51068172710005" width="395.52"><g><svg viewBox="0 0 673.5455260935048 181.3809495308896" height="106.51068172710005" width="395.52"><g transform="matrix(1,0,0,1,278.0255260935048,19.539307146743994)"><svg viewBox="0 0 395.52 142.30233523740162" height="142.30233523740162" width="395.52"><g id="textblocktransform"><svg viewBox="0 0 395.52 142.30233523740162" height="142.30233523740162" width="395.52" id="textblock"><g><svg viewBox="0 0 395.52 142.30233523740162" height="142.30233523740162" width="395.52"><g transform="matrix(1,0,0,1,0,0)"><svg width="395.52" viewBox="4.13333333334 -33.45 121.2048484848418 43.614843750000006" height="142.30233523740162" data-palette-color="#113f67"><path d="M10.25 2.85L10.25 2.85Q8.1 1.45 7.35 0.43 6.6-0.6 7.95-1.45L7.95-1.45Q8.25-1.65 8.93-1.13 9.6-0.6 10.05-0.15L10.05-0.15Q11.05 0.75 12.53 0.98 14 1.2 15.85 0.7L15.85 0.7Q17.95 0.05 19.53-1.13 21.1-2.3 22.5-4L22.5-4Q23.55-5.35 23.95-6.93 24.35-8.5 24.28-9.85 24.2-11.2 23.7-11.75L23.7-11.75Q22.45-13.5 20.23-14.18 18-14.85 15-14.05L15-14.05Q14.65-14 13.95-13.85 13.25-13.7 12.7-13.58 12.15-13.45 12.1-13.45L12.1-13.45Q11.75-13.35 11.55-13.23 11.35-13.1 11.08-12.48 10.8-11.85 10.25-10.28 9.7-8.7 8.6-5.65L8.6-5.65Q7.55-2.6 6.93-1.33 6.3-0.05 5.83-0.18 5.35-0.3 4.65-1.25L4.65-1.25Q4.25-1.95 4.15-2.63 4.05-3.3 4.55-4.2L4.55-4.2Q4.8-4.65 4.95-5.03 5.1-5.4 5.35-6.35L5.35-6.35Q5.6-7.1 6.33-8.97 7.05-10.85 8.05-13.38 9.05-15.9 10.15-18.6 11.25-21.3 12.28-23.7 13.3-26.1 14-27.75L14-27.75Q14.7-29.3 14.85-30 15-30.7 14.75-30.75L14.75-30.75Q14.75-31 14.6-31.23 14.45-31.45 14.5-31.65L14.5-31.65Q14.5-31.85 15.18-32.2 15.85-32.55 16.68-32.85 17.5-33.15 17.95-33.05L17.95-33.05Q18.2-33.05 18.55-33.08 18.9-33.1 18.9-33.3L18.9-33.3Q19.05-33.3 19.85-33.4 20.65-33.5 21.6-33.4L21.6-33.4Q24.95-33.1 26.8-31.48 28.65-29.85 28.6-27.05L28.6-27.05Q28.55-26.2 27.73-24.75 26.9-23.3 25.73-21.85 24.55-20.4 23.45-19.4L23.45-19.4Q22.8-18.85 22.08-18.28 21.35-17.7 20.83-17.32 20.3-16.95 20.3-16.95L20.3-16.95Q20.3-16.95 20.7-16.8 21.1-16.65 21.55-16.5L21.55-16.5Q23.85-15.65 25.35-14.35 26.85-13.05 27.4-10.75L27.4-10.75Q27.6-10 27.43-8.9 27.25-7.8 26.95-6.73 26.65-5.65 26.3-4.9L26.3-4.9Q25.95-4.55 25.75-4.17 25.55-3.8 25.55-3.8L25.55-3.8Q25.55-3.7 25.15-3.03 24.75-2.35 24.2-1.55 23.65-0.75 23.15-0.15L23.15-0.15Q22.65 0.25 21.98 0.8 21.3 1.35 20.48 1.85 19.65 2.35 18.7 2.7L18.7 2.7Q17.3 3.3 15.68 3.53 14.05 3.75 12.6 3.58 11.15 3.4 10.25 2.85ZM12.7-16.4L12.7-16.4Q12.7-16.4 13.63-16.57 14.55-16.75 15.65-16.98 16.75-17.2 17.25-17.4L17.25-17.4Q17.5-17.55 17.98-17.8 18.45-18.05 18.95-18.55L18.95-18.55Q19.65-19.2 20.73-20.43 21.8-21.65 22.85-23.03 23.9-24.4 24.45-25.5L24.45-25.5Q25.6-27.3 25.7-28.18 25.8-29.05 25.15-29.7L25.15-29.7Q24.7-30.25 23.63-30.43 22.55-30.6 21.35-30.53 20.15-30.45 19.3-30.2L19.3-30.2Q18.65-30 18.3-29.73 17.95-29.45 17.95-28.9L17.95-28.9Q17.95-28.45 17.68-28.03 17.4-27.6 17.15-27.35L17.15-27.35Q17.1-27 16.9-26.73 16.7-26.45 16.7-26.45L16.7-26.45Q16.7-26.25 16-24.8 15.3-23.35 14.6-21.45L14.6-21.45Q13.7-19.3 13.2-17.98 12.7-16.65 12.7-16.4ZM34.45-0.75L34.45-0.75Q33.8-0.75 33.42-1 33.05-1.25 32.5-1.7L32.5-1.7Q31.55-2.7 31.15-3.63 30.75-4.55 30.9-5.4L30.9-5.4Q31.05-5.8 31.02-6.18 31-6.55 31-6.55L31-6.55Q30.75-6.8 30.85-6.88 30.95-6.95 31.05-7.15L31.05-7.15Q31.35-7.15 31.25-7.7L31.25-7.7Q31.15-8.1 31.65-9.45 32.15-10.8 32.9-12L32.9-12Q33.2-12.5 33.8-13.33 34.4-14.15 35.12-14.98 35.85-15.8 36.45-16.3L36.45-16.3Q37.7-17.35 38.65-17.85 39.6-18.35 40.7-18.6L40.7-18.6Q41.8-18.85 42.22-18.85 42.65-18.85 43.4-18.05L43.4-18.05Q44.55-17.55 45.07-16.85 45.6-16.15 45.75-14.8L45.75-14.8Q45.9-13.3 45.52-11.38 45.15-9.45 43.15-6.6L43.15-6.6Q41.9-4.8 40.85-3.93 39.8-3.05 38.35-2.2L38.35-2.2Q37.3-1.5 36.45-1.18 35.6-0.85 34.45-0.75ZM39.25-6.05L39.25-6.05Q40.45-7.4 41.17-8.6 41.9-9.8 42.55-11.65L42.55-11.65Q42.75-12.2 42.8-13.03 42.85-13.85 42.77-14.58 42.7-15.3 42.4-15.4L42.4-15.4Q41.8-15.75 40.95-15.63 40.1-15.5 39.1-14.65L39.1-14.65Q37.55-13.35 36.4-11.43 35.25-9.5 34.15-7.05L34.15-7.05Q33.4-5.25 33.82-4.17 34.25-3.1 35.67-3.43 37.1-3.75 39.25-6.05ZM52.1-0.75L52.1-0.75Q51.45-0.75 51.07-1 50.7-1.25 50.15-1.7L50.15-1.7Q49.2-2.7 48.8-3.63 48.4-4.55 48.55-5.4L48.55-5.4Q48.7-5.8 48.67-6.18 48.65-6.55 48.65-6.55L48.65-6.55Q48.4-6.8 48.5-6.88 48.6-6.95 48.7-7.15L48.7-7.15Q49-7.15 48.9-7.7L48.9-7.7Q48.8-8.1 49.3-9.45 49.8-10.8 50.55-12L50.55-12Q50.85-12.5 51.45-13.33 52.05-14.15 52.77-14.98 53.5-15.8 54.1-16.3L54.1-16.3Q55.35-17.35 56.3-17.85 57.25-18.35 58.35-18.6L58.35-18.6Q59.45-18.85 59.87-18.85 60.3-18.85 61.05-18.05L61.05-18.05Q62.2-17.55 62.72-16.85 63.25-16.15 63.4-14.8L63.4-14.8Q63.55-13.3 63.17-11.38 62.8-9.45 60.8-6.6L60.8-6.6Q59.55-4.8 58.5-3.93 57.45-3.05 56-2.2L56-2.2Q54.95-1.5 54.1-1.18 53.25-0.85 52.1-0.75ZM56.9-6.05L56.9-6.05Q58.1-7.4 58.82-8.6 59.55-9.8 60.2-11.65L60.2-11.65Q60.4-12.2 60.45-13.03 60.5-13.85 60.42-14.58 60.34-15.3 60.05-15.4L60.05-15.4Q59.45-15.75 58.6-15.63 57.75-15.5 56.75-14.65L56.75-14.65Q55.2-13.35 54.05-11.43 52.9-9.5 51.8-7.05L51.8-7.05Q51.05-5.25 51.47-4.17 51.9-3.1 53.32-3.43 54.75-3.75 56.9-6.05ZM66.89-0.25L66.89-0.25Q66.49-0.4 66.04-0.88 65.59-1.35 65.29-2 64.99-2.65 64.99-3.2L64.99-3.2Q65.24-3.75 65.64-5.13 66.04-6.5 66.64-8.3L66.64-8.3Q67.04-8.85 67.27-9.6 67.49-10.35 67.69-10.95L67.69-10.95Q68.09-11.75 68.64-13.03 69.19-14.3 69.72-15.63 70.24-16.95 70.64-17.85L70.64-17.85Q71.29-19.2 71.77-20.33 72.24-21.45 72.72-22.6 73.19-23.75 73.74-25.1L73.74-25.1Q74.34-26.5 74.97-27.95 75.59-29.4 76.07-30.58 76.54-31.75 76.64-32.25L76.64-32.25Q76.64-32.65 76.82-32.85 76.99-33.05 77.19-33.05L77.19-33.05Q77.39-33.25 77.59-33.27 77.79-33.3 77.99-33.3L77.99-33.3Q78.19-33.3 78.77-32.55 79.34-31.8 79.34-31.2L79.34-31.2Q79.34-30.4 78.57-28.2 77.79-26 76.39-23.2L76.39-23.2Q74.69-19.5 73.64-17.13 72.59-14.75 72.19-13.58 71.79-12.4 71.89-12.25L71.89-12.25Q71.89-12.25 72.59-12.58 73.29-12.9 74.09-13.5L74.09-13.5Q74.64-13.8 75.29-14.25 75.94-14.7 76.54-15.13 77.14-15.55 77.54-15.65L77.54-15.65Q78.14-16.05 78.79-16.43 79.44-16.8 79.64-17L79.64-17Q80.49-17.4 80.92-17.25 81.34-17.1 81.79-16.5L81.79-16.5Q82.34-15.85 81.99-15.38 81.64-14.9 80.34-14.1L80.34-14.1Q79.29-13.45 77.82-12.55 76.34-11.65 75.22-10.95 74.09-10.25 73.94-10.1L73.94-10.1Q73.94-10.1 74.34-9.35 74.74-8.6 75.14-8L75.14-8Q75.54-7.2 76.02-6.53 76.49-5.85 76.49-5.6L76.49-5.6Q77.04-4.05 78.14-3.35 79.24-2.65 80.44-3.2L80.44-3.2Q81.44-3.6 81.92-3.45 82.39-3.3 82.59-2.7L82.59-2.7Q82.79-2.3 82.72-2.13 82.64-1.95 82.04-1.35L82.04-1.35Q81.09-0.4 80.12-0.15 79.14 0.1 78.34-0.3L78.34-0.3Q77.59-0.25 76.49-1.28 75.39-2.3 73.34-4.95L73.34-4.95Q73.34-5.15 73.17-5.53 72.99-5.9 72.79-6.25L72.79-6.25Q72.59-6.65 72.29-7.13 71.99-7.6 71.99-7.6L71.99-7.6Q71.99-7.8 71.84-8.05 71.69-8.3 71.44-8.65L71.44-8.65Q70.64-8.9 70.29-8.35 69.94-7.8 69.54-7.2L69.54-7.2Q69.29-6.55 68.92-5.38 68.54-4.2 68.32-3.1 68.09-2 68.19-1.6L68.19-1.6Q68.19-0.8 67.94-0.53 67.69-0.25 66.89-0.25ZM85.59-1.6L85.59-1.6Q85.19-2 85.02-2.6 84.84-3.2 84.89-3.8 84.94-4.4 85.14-4.8L85.14-4.8Q85.14-5.2 85.27-5.43 85.39-5.65 85.34-5.85L85.34-5.85Q85.29-6.05 85.44-6.55 85.59-7.05 85.74-7.5L85.74-7.5Q86.09-8.3 86.49-9.43 86.89-10.55 87.24-11.65 87.59-12.75 87.84-13.55 88.09-14.35 88.14-14.55L88.14-14.55Q88.14-15.15 88.94-15.2L88.94-15.2Q89.54-15.4 89.84-15.23 90.14-15.05 90.64-14.25L90.64-14.25Q91.04-13.85 90.94-13.05 90.84-12.25 90.29-11.05L90.29-11.05Q90.09-10.65 89.82-9.9 89.54-9.15 89.44-8.55L89.44-8.55Q89.24-8.15 88.97-7.43 88.69-6.7 88.49-6.05L88.49-6.05Q88.39-5.8 88.29-5.33 88.19-4.85 88.04-4.33 87.89-3.8 87.64-3.4L87.64-3.4Q87.19-1.35 86.82-1 86.44-0.65 85.59-1.6ZM90.44-21.9L90.44-21.9Q90.19-22.15 89.99-22.63 89.79-23.1 89.74-23.53 89.69-23.95 89.84-23.95L89.84-23.95Q90.24-24 90.79-24.8 91.34-25.6 91.24-26.2L91.24-26.2Q91.24-26.4 91.39-26.58 91.54-26.75 91.74-26.8L91.74-26.8Q92.34-27.2 92.92-26.93 93.49-26.65 93.99-25.85L93.99-25.85Q94.44-24.9 94.24-24.28 94.04-23.65 93.14-22.55L93.14-22.55Q92.39-21.55 91.77-21.45 91.14-21.35 90.44-21.9ZM96.04 5.3L96.04 5.3Q95.74 5.5 95.36 5.2 94.99 4.9 94.29 4.1L94.29 4.1Q93.94 3.7 93.84 3.25 93.74 2.8 93.89 1.55L93.89 1.55Q94.09 1 94.11 0.5 94.14 0 94.14-0.2L94.14-0.2Q94.14-0.5 94.31-1.6 94.49-2.7 94.69-3.93 94.89-5.15 95.04-5.8L95.04-5.8Q95.04-5.85 95.09-6.05 95.14-6.25 95.19-6.4L95.19-6.4Q95.29-6.85 95.46-7.6 95.64-8.35 95.79-9.45L95.79-9.45Q96.19-10.7 96.46-11.93 96.74-13.15 96.74-13.6L96.74-13.6Q96.74-14.5 97.44-14.9L97.44-14.9Q97.49-15.15 97.74-15.68 97.99-16.2 98.19-16.55L98.19-16.55Q99.19-19.4 99.84-21.08 100.49-22.75 101.19-24L101.19-24Q101.49-24.85 101.86-25.75 102.24-26.65 102.64-27.15L102.64-27.15Q102.89-27.8 103.79-28.83 104.69-29.85 105.69-30.83 106.69-31.8 107.29-32.3L107.29-32.3Q108.39-32.85 109.04-33.05 109.69-33.25 110.74-33.25L110.74-33.25Q111.69-33.25 112.01-33.02 112.34-32.8 112.99-32.2L112.99-32.2Q113.69-31.45 113.79-31.2 113.89-30.95 113.89-30.25L113.89-30.25Q113.79-29.6 113.36-28.58 112.94-27.55 112.46-26.73 111.99-25.9 111.69-25.85L111.69-25.85Q111.09-25.65 110.81-25.98 110.54-26.3 110.54-27.05L110.54-27.05Q110.54-27.4 110.36-27.73 110.19-28.05 110.19-28.05L110.19-28.05Q110.19-28.2 110.26-28.58 110.34-28.95 110.54-29.3L110.54-29.3Q110.79-29.8 110.66-30.05 110.54-30.3 109.99-30.15L109.99-30.15Q109.84-30.05 109.19-29.55 108.54-29.05 107.81-28.43 107.09-27.8 106.54-27.25 105.99-26.7 105.99-26.55L105.99-26.55Q105.99-26.55 105.79-26.13 105.59-25.7 105.04-25.05L105.04-25.05Q104.69-24.55 104.41-24.08 104.14-23.6 104.14-23.5L104.14-23.5Q104.14-23.3 104.11-23.08 104.09-22.85 103.84-22.85L103.84-22.85Q103.84-22.85 103.69-22.4 103.54-21.95 103.14-21.25L103.14-21.25Q102.94-20.75 102.64-20.23 102.34-19.7 102.14-19.5L102.14-19.5 102.19-19.5Q102.19-19.5 101.96-18.88 101.74-18.25 101.49-17.57 101.24-16.9 101.24-16.8L101.24-16.8Q101.24-16.6 101.96-16.6 102.69-16.6 103.69-16.78 104.69-16.95 105.49-17.15L105.49-17.15Q106.19-17.35 106.44-17.35 106.69-17.35 107.44-17.15L107.44-17.15Q107.84-16.9 108.11-16.43 108.39-15.95 108.51-15.53 108.64-15.1 108.49-14.9L108.49-14.9Q108.44-14.7 107.39-14.35 106.34-14 105.29-13.8L105.29-13.8Q104.39-13.6 103.09-13.35 101.79-13.1 100.81-12.9 99.84-12.7 99.84-12.55L99.84-12.55Q99.64-12.55 99.49-12.33 99.34-12.1 99.34-11.95L99.34-11.95Q99.34-11.25 99.14-10.9L99.14-10.9Q99.04-10.6 98.79-9.7 98.54-8.8 98.26-7.7 97.99-6.6 97.81-5.7 97.64-4.8 97.64-4.5L97.64-4.5Q97.34-4.15 97.29-3.63 97.24-3.1 97.24-2.7L97.24-2.7Q97.04-2.3 96.99-1.98 96.94-1.65 96.94-1.45L96.94-1.45Q96.94-1.4 96.94-1.25 96.94-1.1 96.89-0.95L96.89-0.95Q96.84-0.45 96.76 0.38 96.69 1.2 96.69 2L96.69 2 96.54 3.45Q96.49 4.1 96.39 4.58 96.29 5.05 96.04 5.3ZM108.89 9.95L108.89 9.95Q107.69 10.3 106.26 10.08 104.84 9.85 103.76 9.2 102.69 8.55 102.53 7.75L102.53 7.75Q102.48 7.45 102.71 7.1 102.94 6.75 103.26 6.63 103.59 6.5 103.84 6.8L103.84 6.8Q104.23 7.05 105.28 7.43 106.34 7.8 107.64 7.55L107.64 7.55Q108.78 7.3 109.91 6.2 111.03 5.1 111.73 4.15L111.73 4.15Q112.14 3.55 113.09 2 114.03 0.45 115.06-1.43 116.09-3.3 116.78-4.9L116.78-4.9Q116.94-5.3 117.14-5.85 117.34-6.4 117.64-6.75L117.64-6.75Q117.94-7.35 118.16-7.88 118.39-8.4 118.44-8.6L118.44-8.6Q118.48-8.85 118.89-9.6 119.28-10.35 119.64-11.1L119.64-11.1Q119.89-11.85 120.39-13.3 120.89-14.75 121.39-15.65L121.39-15.65Q121.98-16.8 122.36-17.53 122.73-18.25 123.19-18.4L123.19-18.4 123.19-18.4 123.19-18.4Q123.64-18.75 123.81-18.75 123.98-18.75 124.53-18.45L124.53-18.45Q125.14-17.85 125.28-17.28 125.44-16.7 125.16-15.88 124.89-15.05 124.14-13.65L124.14-13.65Q123.73-12.45 123.26-11.48 122.78-10.5 122.53-10.2L122.53-10.2Q122.28-9.6 121.96-8.88 121.64-8.15 121.39-7.55L121.39-7.55Q120.48-5.55 119.84-4.3 119.19-3.05 118.69-2 118.19-0.95 117.64 0.45L117.64 0.45Q116.48 2.3 115.41 3.98 114.34 5.65 113.14 7.1L113.14 7.1Q112.64 7.55 111.89 8.15 111.14 8.75 110.36 9.25 109.59 9.75 108.89 9.95ZM115.64-2.05L115.64-2.05Q114.89-2.15 114.16-2.95 113.44-3.75 113.03-4.65 112.64-5.55 112.73-5.95L112.73-5.95Q112.73-6.2 112.73-6.35 112.73-6.5 112.73-6.5L112.73-6.5Q112.44-6.5 112.21-7.25 111.98-8 111.89-9.2 111.78-10.4 111.76-11.75 111.73-13.1 111.84-14.3L111.84-14.3Q112.03-15.15 112.03-16.18 112.03-17.2 112.09-17.8L112.09-17.8Q112.03-18.6 112.23-18.88 112.44-19.15 112.64-19.3L112.64-19.3 112.64-19.3 112.64-19.3Q114.03-19.9 114.51-18.57 114.98-17.25 114.73-13.65L114.73-13.65Q114.64-11.65 114.73-9.65 114.84-7.65 115.31-6.15 115.78-4.65 116.64-4.1L116.64-4.1Q116.98-3.9 116.98-3.55 116.98-3.2 116.78-2.83 116.59-2.45 116.26-2.23 115.94-2 115.64-2.05Z" opacity="1" transform="matrix(1,0,0,1,0,0)" fill="#ffffff" class="wordmark-text-0" data-fill-palette-color="primary" id="text-0"></path></svg></g></svg></g></svg></g></svg></g><g><svg viewBox="0 0 244.43135999999998 181.3809495308896" height="181.3809495308896" width="244.43135999999998"><g><svg xmlns="http://www.w3.org/2000/svg" xmlns:xlink="http://www.w3.org/1999/xlink" version="1.0" x="0" y="0" viewBox="4.892 17.35398766994711 89.274 66.24601233008988" enable-background="new 0 0 100 100" xml:space="preserve" height="181.3809495308896" width="244.43135999999998" class="icon-icon-0" data-fill-palette-color="accent" id="icon-0"><path fill="#ffffff" d="M88.999 69.693C88.499 69.777 87.683 70.47 85.478 72.43 83.881 73.85 81.697 75.793 81.006 75.984 80.2 76.203 73.966 76.375 70.892 75.771V73.553H69.587V82.297H24.299V39.149H22.997V53.114C21.357 53.126 18.528 53.114 18.3 53.078 17.354 52.887 13.873 49.493 11.703 47.146A0.55 0.55 0 0 0 11.29 46.963H4.927V48.083H11.049C12.259 49.383 16.52 53.86 18.081 54.172 18.286 54.214 19.103 54.231 20.33 54.231H22.997V82.949C22.997 83.305 23.286 83.6 23.648 83.6H70.238A0.654 0.654 0 0 0 70.892 82.949V76.908C73.009 77.36 75.651 77.194 78.665 77.194 79.978 77.194 80.976 77.155 81.307 77.062 82.18 76.821 83.819 75.403 86.219 73.269 87.39 72.234 88.838 70.945 89.211 70.79 90.199 70.63 93.071 70.745 94.102 70.804L94.166 69.687C94.01 69.677 90.287 69.472 88.999 69.693" data-fill-palette-color="accent"></path><path fill="#ffffff" d="M88.008 54.17C86.801 52.87 82.537 48.39 80.977 48.081 80.452 47.975 75.988 48.022 70.893 48.121V18.005A0.65 0.65 0 0 0 70.239 17.354H23.649A0.65 0.65 0 0 0 22.998 18.005V25.582C20.499 25.509 18.279 25.526 17.751 25.675 16.878 25.916 15.238 27.334 12.833 29.47 11.668 30.503 10.22 31.788 9.846 31.943 8.858 32.103 5.986 31.99 4.956 31.932L4.892 33.049C5.049 33.057 8.771 33.265 10.06 33.043 10.56 32.953 11.376 32.263 13.58 30.306 15.178 28.886 17.364 26.943 18.052 26.752 18.858 26.533 27.102 26.712 30.201 27.178 33.101 27.614 35.669 27.319 36.61 27.178 36.838 27.616 37.101 28.551 36.06 29.623 35.471 30.235 33.158 30.274 31.296 30.305 29.306 30.336 27.428 30.369 26.451 30.945 25.572 31.47 24.814 32.59 24.079 33.671 23.402 34.668 22.704 35.698 22.066 36.009 20.129 36.969 17.46 36.652 17.434 36.652L17.293 37.761C17.341 37.769 17.815 37.823 18.514 37.823 19.592 37.823 21.198 37.688 22.559 37.014 23.463 36.571 24.212 35.468 25.007 34.3 25.672 33.318 26.36 32.304 27.02 31.908 27.742 31.481 29.642 31.45 31.315 31.425 33.698 31.385 35.95 31.349 36.868 30.403 38.541 28.671 37.887 26.9 37.306 26.206A0.56 0.56 0 0 0 36.77 26.015C36.742 26.021 33.761 26.579 30.367 26.069 29.084 25.875 26.679 25.715 24.301 25.625V18.658H69.59V48.145A2004 2004 0 0 0 55.034 48.491C55.014 48.491 54.995 48.491 54.978 48.493 54.826 48.513 51.261 49.01 51.261 51.811 51.261 52.732 51.577 53.554 52.103 54.169H49.838C48.69 54.245 46.52 55.025 46.514 57.468 46.511 58.06 46.797 58.672 47.325 59.199 47.454 59.325 47.592 59.449 47.743 59.561H46.275A0.7 0.7 0 0 0 46.126 59.581 3.706 3.706 0 0 0 43.507 63.275C43.549 65.65 45.29 66.492 46.208 66.604L46.275 66.607H47.802C47.421 67.152 47.221 67.89 47.221 68.789 47.221 70.824 48.987 71.59 49.919 71.711A0.4 0.4 0 0 0 49.981 71.714L72.453 72.166 72.475 71.046 50.039 70.597C49.812 70.56 48.341 70.271 48.341 68.789 48.341 66.607 49.759 66.607 50.222 66.607H71.153A0.56 0.56 0 0 0 71.709 66.048 0.56 0.56 0 0 0 71.153 65.486H46.316C46.044 65.441 44.657 65.116 44.626 63.249 44.592 61.405 46.038 60.796 46.361 60.681H70.318A0.561 0.561 0 1 0 70.318 59.56H51.402C50.066 59.56 48.837 59.127 48.112 58.406 47.8 58.093 47.629 57.76 47.629 57.468 47.634 55.54 49.6 55.31 49.892 55.287H70.362A0.56 0.56 0 0 0 70.362 54.166H54.51C53.177 54.166 52.38 52.968 52.38 51.808 52.38 50.082 54.827 49.647 55.094 49.605 64.913 49.344 79.828 49.01 80.757 49.175 81.703 49.36 85.184 52.757 87.354 55.107 87.461 55.219 87.61 55.287 87.767 55.287H94.133V54.167H88.008z" data-fill-palette-color="accent"></path></svg></g></svg></g></svg></g><defs></defs></svg><rect width="395.52" height="106.51068172710005" fill="none" stroke="none" visibility="hidden"></rect></g></svg></g></svg>